<svg xmlns="http://www.w3.org/2000/svg" xmlns:xlink="http://www.w3.org/1999/xlink" viewBox="0 0 22 27.5" version="1.1" x="0px" y="0px"><title>star</title><g stroke="none" stroke-width="1" fill="none" fill-rule="evenodd"><g transform="translate(-225.000000, -225.000000)" fill="#000000"><path d="M235.9999,242.40651 C236.0829,242.40651 236.1669,242.427547 236.2419,242.468617 L241.8299,245.560949 L240.7569,238.97259 C240.7309,238.816321 240.7809,238.657046 240.8929,238.542849 L245.4619,233.853765 L239.1699,232.891105 C239.0049,232.866062 238.8629,232.759879 238.7929,232.60962 L235.9999,226.653351 L233.2069,232.60962 C233.1369,232.759879 232.9949,232.866062 232.8299,232.891105 L226.5379,233.853765 L231.1069,238.542849 C231.2189,238.657046 231.2689,238.816321 231.2429,238.97259 L230.1699,245.560949 L235.7579,242.468617 C235.8329,242.427547 235.9169,242.40651 235.9999,242.40651 M242.4889,246.999429 C242.4059,246.999429 242.3229,246.978393 242.2469,246.93632 L235.9999,243.47936 L229.7529,246.93632 C229.5839,247.030483 229.3799,247.019464 229.2229,246.908272 C229.0659,246.798082 228.9859,246.606752 229.0179,246.418427 L230.2159,239.061744 L225.1429,233.855768 C225.0119,233.720535 224.9669,233.525198 225.0249,233.345889 C225.0849,233.167582 225.2389,233.038359 225.4249,233.01031 L232.4159,231.941468 L235.5479,225.262953 C235.7119,224.912349 236.2879,224.912349 236.4519,225.262953 L239.5839,231.941468 L246.5749,233.01031 C246.7609,233.038359 246.9149,233.167582 246.9749,233.345889 C247.0329,233.525198 246.9879,233.720535 246.8569,233.855768 L241.7839,239.061744 L242.9819,246.418427 C243.0139,246.606752 242.9339,246.798082 242.7769,246.908272 C242.6909,246.969377 242.5909,246.999429 242.4889,246.999429"/></g></g><text x="0" y="37" fill="#000000" font-size="5px" font-weight="bold" font-family="'Helvetica Neue', Helvetica, Arial-Unicode, Arial, Sans-serif">Created by Dirk de Ron</text><text x="0" y="42" fill="#000000" font-size="5px" font-weight="bold" font-family="'Helvetica Neue', Helvetica, Arial-Unicode, Arial, Sans-serif">from the Noun Project</text></svg>